<?xml version="1.0" encoding="utf-8"?>
<!-- Generator: Adobe Illustrator 16.0.0, SVG Export Plug-In . SVG Version: 6.00 Build 0)  -->
<!DOCTYPE svg PUBLIC "-//W3C//DTD SVG 1.1//EN" "http://www.w3.org/Graphics/SVG/1.1/DTD/svg11.dtd">
<svg version="1.1" xmlns="http://www.w3.org/2000/svg" xmlns:xlink="http://www.w3.org/1999/xlink" x="0px" y="0px" width="500px"
	 height="219px" viewBox="0 0 500 219" enable-background="new 0 0 500 219" xml:space="preserve">
<g id="Layer_1">
	
		<line id="line_2_" fill="none" stroke="#000000" stroke-width="2" stroke-miterlimit="10" x1="188.014" y1="197.534" x2="18.935" y2="197.534"/>
	
		<line id="line_1_" fill="none" stroke="#000000" stroke-width="2" stroke-miterlimit="10" x1="188.014" y1="134.867" x2="18.935" y2="134.867"/>
	
		<line id="line" fill="none" stroke="#000000" stroke-width="2" stroke-miterlimit="10" x1="215.974" y1="46" x2="215.974" y2="118"/>
	<path stroke="#000000" stroke-width="2" stroke-miterlimit="10" d="M99.922,186.22c-14.805,0-26.808-8.874-26.808-19.819
		s12.002-19.818,26.808-19.818c8.25-0.001,26.981,8.024,44.194,13.474c13.681,4.33,27.334,6.344,27.334,6.344
		s-14.078,1.573-27.658,5.875C126.54,177.743,108.206,186.22,99.922,186.22z"/>
	<circle fill="none" stroke="#000000" stroke-width="2" stroke-miterlimit="10" cx="46.128" cy="166.401" r="21.154"/>
	<g display="none">
		<path display="inline" fill="none" stroke="#000000" stroke-width="2" stroke-miterlimit="10" d="M481,90.167
			c0,2.841-2.7,5.167-6,5.167h-29.334c-3.3,0-6-2.325-6-5.167c0-2.842,2.7-5.167,6-5.167H475C478.3,85,481,87.325,481,90.167z"/>
	</g>
	<path display="none" stroke="#000000" stroke-width="2" stroke-miterlimit="10" d="M474.45,101.75h-33.069
		c-0.952,0.926-1.715,2.485-1.715,5.102c0,8.869,7.153,14.425,15.896,14.425c4.585,0,8.094,0.002,12.81-3.094
		c4.275-2.809,13.533-10.147,12.615-14.197C480.662,102.554,479.78,101.75,474.45,101.75z"/>
	<path stroke="#000000" stroke-width="2" stroke-miterlimit="10" d="M433.989,78.281v35.547c-0.342,1.364-0.792,2.715-1.328,4.067
		c-0.461,1.15-0.986,2.291-1.586,3.407c-6.603,12.39-19.271,18.201-28.296,12.982c-9.023-5.228-10.996-19.505-4.394-31.895
		c5.326-9.999,14.608-15.708,22.742-14.78v-9.328c0-3.051,2.306-5.531,5.146-5.531h2.572
		C431.686,72.75,433.989,75.23,433.989,78.281z"/>
	<circle fill="none" stroke="#000000" stroke-width="2" stroke-miterlimit="10" cx="372.975" cy="82" r="25"/>
	<path display="none" fill="none" stroke="#000000" stroke-width="2" stroke-miterlimit="10" d="M354.465,110.506
		c0,8.173-3.102,13.994-9.109,13.994c-3.756,0-8.924-1.117-10.879-5.054c-1.174-2.362,1.791-8.586,1.791-11.652
		c0-8.173,2.057-10.277,8.064-10.277C350.342,97.517,354.465,102.333,354.465,110.506z"/>
	<circle stroke="#000000" stroke-width="2" stroke-miterlimit="10" cx="314.975" cy="82" r="25"/>
	<path display="none" fill="none" stroke="#000000" stroke-width="2" stroke-miterlimit="10" d="M295.975,110.506
		c0,8.173-3.102,13.994-9.109,13.994c-3.755,0-8.924-1.117-10.879-5.054c-1.174-2.362,1.791-8.586,1.791-11.652
		c0-8.173,2.057-10.277,8.065-10.277C291.852,97.517,295.975,102.333,295.975,110.506z"/>
	<circle stroke="#000000" stroke-width="2" stroke-miterlimit="10" cx="255.974" cy="82" r="25"/>
	<path display="none" fill="#FFFFFF" stroke="#000000" stroke-width="2" stroke-miterlimit="10" d="M208.746,61.446v41.91
		c0,2.28-1.99,4.12-4.45,4.12h-2.96c-2.46,0-4.46-1.84-4.46-4.12c0,0-0.14-26.46-0.13-26.04c-1.03-7.84-7.4-16.99-13.29-23.22
		c-5.101-5.39-17.32-8.15-23.49-13.04c-1.38-1.76-2.34-4.42-1.49-6.23c3.4-7.24,10.48-11.07,17.61-12.14
		c5.38,0.31,11.29,4.72,15.39,7.75c7.42,7.47,17.141,19.59,17.261,30.79C208.746,61.295,208.746,61.375,208.746,61.446z"/>
	<circle stroke="#000000" stroke-width="2" stroke-miterlimit="10" cx="164.974" cy="82" r="25"/>
	<circle stroke="#000000" stroke-width="2" stroke-miterlimit="10" cx="106.974" cy="82" r="25"/>
	<circle stroke="#000000" stroke-width="2" stroke-miterlimit="10" cx="47.974" cy="82" r="25"/>
</g>
<g id="test_shape_2" display="none">
	<path display="inline" fill="#FFFFFF" stroke="#000000" stroke-width="2" stroke-miterlimit="10" d="M361.662,347.968
		c-11.845,0-21.446-9.602-21.446-21.445c0-11.845,9.602-21.447,21.446-21.447c6.6,0,21.585,8.684,35.356,14.581
		c10.943,4.687,21.867,6.866,21.867,6.866s-11.264,1.701-22.127,6.356C382.956,338.794,368.29,347.968,361.662,347.968z"/>
	<path display="inline" fill="#FFFFFF" stroke="#000000" stroke-width="2" stroke-miterlimit="10" d="M86.111,372.522
		c-12.702,0-23-10.299-23-23c0-12.703,10.298-23,23-23s85.079,23,85.079,23S98.813,372.522,86.111,372.522z"/>
	
		<image display="inline" overflow="visible" width="100" height="124" xlink:href="../../../Screen Shot 2019-12-12 at 6.24.02 PM.png"  transform="matrix(0.7984 0 0 0.7984 481.0908 187.7793)">
	</image>
	<path id="good_for_later" display="inline" fill="none" stroke="#000000" stroke-width="2" stroke-miterlimit="10" d="
		M586.216,352.097c0,1.354-2.295,2.45-5.125,2.45l0,0c-2.83,0-5.125-1.097-5.125-2.45v-38.6c0-1.354,2.295-2.45,5.125-2.45l0,0
		c2.83,0,5.125,1.097,5.125,2.45V352.097z"/>
	<path id="good_for_later_1_" display="inline" fill="none" stroke="#000000" stroke-width="2" stroke-miterlimit="10" d="
		M511.132,287.097c0,1.354-2.295,2.45-5.125,2.45l0,0c-2.83,0-5.125-1.097-5.125-2.45v-38.6c0-1.354,2.295-2.45,5.125-2.45l0,0
		c2.83,0,5.125,1.097,5.125,2.45V287.097z"/>
	<path display="inline" fill="none" stroke="#000000" stroke-width="2" stroke-miterlimit="10" d="M135.216,474.251
		c0,15.464-12.536,28-28,28s-28-12.536-28-28c0-6.356,11.428-27.053,17-39.5c7.984-17.835,11-27.43,11-27.43s1.921,9.201,10,27.43
		C122.551,446.788,135.216,468.101,135.216,474.251z"/>
	<path display="inline" fill="#FFFFFF" stroke="#000000" stroke-width="2" stroke-miterlimit="10" d="M360.799,253.541v41.91
		c0,2.28-1.99,4.12-4.45,4.12h-2.96c-2.46,0-4.46-1.84-4.46-4.12c0,0-0.14-26.46-0.13-26.04c-1.03-7.84-7.4-16.989-13.29-23.22
		c-5.101-5.39-17.32-8.15-23.49-13.04c-1.38-1.76-2.34-4.42-1.49-6.23c3.4-7.24,10.48-11.07,17.61-12.14
		c5.38,0.31,11.29,4.72,15.39,7.75c7.42,7.47,17.141,19.59,17.261,30.79C360.799,253.391,360.799,253.471,360.799,253.541z"/>
	<path display="inline" fill="#FFFFFF" stroke="#000000" stroke-width="2" stroke-miterlimit="10" d="M412.736,211.146v41.91
		c0,2.279-1.99,4.119-4.45,4.119h-2.96c-2.46,0-4.46-1.84-4.46-4.119c0,0-0.14-26.46-0.13-26.041c-1.03-7.84-7.4-16.99-13.29-23.22
		c-5.101-5.39-17.32-8.15-23.49-13.04c-1.38-1.76-2.34-4.42-1.49-6.23c3.4-7.24,10.48-11.07,17.61-12.14
		c5.38,0.31,11.29,4.72,15.39,7.75c7.42,7.47,17.141,19.59,17.261,30.79C412.736,210.996,412.736,211.076,412.736,211.146z"/>
	<path display="inline" fill="#FFFFFF" stroke="#000000" stroke-width="2" stroke-miterlimit="10" d="M485.879,265.402
		c-0.468-8.104-7.219-17.939-13.428-24.501c-5.099-5.389-17.312-8.156-23.482-13.048c-1.385-1.755-2.345-4.416-1.495-6.227
		c3.402-7.241,10.479-11.073,17.611-12.142c5.376,0.316,11.285,4.725,15.386,7.755c8.255,8.298,19.335,22.342,16.948,34.479
		c-1.646,5.855-6.597,4.635-10.567,9.02C485.208,262.527,485.879,265.402,485.879,265.402z"/>
	<g display="inline">
		<path fill="none" stroke="#000000" stroke-width="2" stroke-miterlimit="10" d="M486.879,248.027c-0.55,0-1,0.451-1,1v40.136
			c0,0.55,0.196,1.405,0.437,1.899l3.097,2.834c0.508,0.21,1.374,0.382,1.924,0.382h0.956c0.55,0,1.416-0.172,1.924-0.382
			l3.097-2.834c0.24-0.494,0.437-1.35,0.437-1.899v-40.136c0-0.549-0.45-1-1-1H486.879z"/>
	</g>
</g>
<g id="test_shapes" display="none">
	<path display="inline" fill="none" stroke="#000000" stroke-width="2" stroke-miterlimit="10" d="M332.288,220.314
		c1.141,3.926-6.521,10.027-11.834,12.75c-5.859,3.002-10.219,3-15.916,3c-10.86,0-19.75-5.386-19.75-13.983
		c0-6.767,6.733-6.234,6.733-6.234S330.038,212.564,332.288,220.314z"/>
	<path display="inline" fill="none" stroke="#000000" stroke-width="2" stroke-miterlimit="10" d="M248.623,231.647l-21.667,3.333
		c-1.657,0-23.833,7.157-23.833,5.5l1-21.333c-31.5,6.463,65.333-33,65.333,1.5C269.456,220.647,250.28,231.647,248.623,231.647z"/>
	<path display="inline" fill="none" stroke="#000000" stroke-width="2" stroke-miterlimit="10" d="M286.666,258.812h-41.087
		c-1.184,0.898-2.131,2.408-2.131,4.947c0,8.596,8.889,13.982,19.75,13.982c5.696,0,10.057,0.002,15.916-3
		c5.312-2.723,16.815-9.836,15.674-13.762C294.386,259.592,293.289,258.812,286.666,258.812z"/>
	<path display="inline" fill="none" stroke="#000000" stroke-width="2" stroke-miterlimit="10" d="M336.79,258.812h-36.928
		c-1.062,0.898-1.914,2.408-1.914,4.947c0,8.596,7.988,13.982,17.75,13.982c5.119,0,9.039,0.002,14.305-3
		c4.773-2.723,15.111-9.836,14.088-13.762C343.728,259.592,342.743,258.812,336.79,258.812z"/>
	<g display="inline">
		<path fill="#FFFFFF" d="M431.617,202.185c0,2.841-2.7,5.167-6,5.167h-29.334c-3.3,0-6-2.325-6-5.167c0-2.842,2.7-5.167,6-5.167
			h29.334C428.917,197.018,431.617,199.343,431.617,202.185z"/>
		<path fill="none" stroke="#000000" stroke-width="2" stroke-miterlimit="10" d="M431.617,202.185c0,2.841-2.7,5.167-6,5.167
			h-29.334c-3.3,0-6-2.325-6-5.167c0-2.842,2.7-5.167,6-5.167h29.334C428.917,197.018,431.617,199.343,431.617,202.185z"/>
	</g>
	<path display="inline" fill="none" stroke="#000000" stroke-width="2" stroke-miterlimit="10" d="M425.067,213.768h-33.069
		c-0.952,0.926-1.715,2.485-1.715,5.102c0,8.869,7.153,14.425,15.896,14.425c4.585,0,8.094,0.002,12.81-3.094
		c4.275-2.809,13.533-10.147,12.615-14.197C431.279,214.572,430.397,213.768,425.067,213.768z"/>
	<path display="inline" fill="none" stroke="#000000" stroke-width="2" stroke-miterlimit="10" d="M482.129,240.314
		c0,6.77-2.922,11.592-8.583,11.592c-3.538,0-8.408-0.926-10.25-4.186c-1.105-1.957,1.688-7.114,1.688-9.653
		c0-6.771,1.938-8.514,7.599-8.514S482.129,233.542,482.129,240.314z"/>
	<path display="inline" fill="none" stroke="#000000" stroke-width="2" stroke-miterlimit="10" d="M362.312,190.763
		c0,9.083-3.102,15.55-9.109,15.55c-3.756,0-8.924-1.242-10.879-5.616c-1.174-2.625,1.791-9.541,1.791-12.947
		c0-9.082,2.057-11.42,8.064-11.42C358.188,176.331,362.312,181.681,362.312,190.763z"/>
</g>
</svg>
