<?xml version="1.0" encoding="utf-8"?>
<!-- Generator: Adobe Illustrator 16.0.0, SVG Export Plug-In . SVG Version: 6.00 Build 0)  -->
<!DOCTYPE svg PUBLIC "-//W3C//DTD SVG 1.1//EN" "http://www.w3.org/Graphics/SVG/1.1/DTD/svg11.dtd">
<svg version="1.1" id="Layer_1" xmlns="http://www.w3.org/2000/svg" xmlns:xlink="http://www.w3.org/1999/xlink" x="0px" y="0px"
	 width="346.804px" height="427.001px" viewBox="-0.003 -0.001 346.804 427.001"
	 enable-background="new -0.003 -0.001 346.804 427.001" xml:space="preserve">
<path fill="#FFFFFF" d="M232.398,154.703c-5.523,0-10,4.477-10,10v189c0,5.52,4.477,10,10,10c5.522,0,10-4.48,10-10v-189
	C242.398,159.18,237.922,154.703,232.398,154.703z"/>
<path fill="#FFFFFF" d="M114.399,154.703c-5.523,0-10,4.477-10,10v189c0,5.52,4.477,10,10,10s10-4.48,10-10v-189
	C124.399,159.18,119.922,154.703,114.399,154.703z"/>
<path fill="#FFFFFF" d="M28.399,127.121V373.5c0,14.562,5.34,28.238,14.668,38.051c9.285,9.84,22.207,15.426,35.73,15.449H268
	c13.527-0.023,26.449-5.609,35.73-15.449c9.328-9.812,14.669-23.488,14.669-38.051V127.121
	c18.543-4.922,30.559-22.836,28.077-41.863c-2.483-19.024-18.69-33.254-37.878-33.258h-51.2V39.5
	c0.06-10.512-4.098-20.605-11.539-28.031C238.418,4.047,228.309-0.086,217.797,0H129c-10.512-0.086-20.621,4.047-28.062,11.469
	C93.497,18.895,89.34,28.988,89.399,39.5V52H38.2C19.012,52.004,2.805,66.234,0.321,85.258
	C-2.16,104.285,9.856,122.199,28.399,127.121z M268,407H78.797c-17.098,0-30.398-14.688-30.398-33.5V128h250v245.5
	C298.398,392.312,285.098,407,268,407z M109.399,39.5c-0.066-5.207,1.98-10.219,5.676-13.895C118.766,21.93,123.79,19.91,129,20
	h88.796c5.211-0.09,10.233,1.93,13.927,5.605c3.694,3.672,5.741,8.688,5.676,13.895V52h-128L109.399,39.5L109.399,39.5z M38.2,72
	h270.398c9.941,0,18,8.059,18,18s-8.059,18-18,18H38.2c-9.941,0-18-8.059-18-18S28.258,72,38.2,72z"/>
<path fill="#FFFFFF" d="M173.399,154.703c-5.523,0-10,4.477-10,10v189c0,5.52,4.477,10,10,10s10-4.48,10-10v-189
	C183.399,159.18,178.922,154.703,173.399,154.703z"/>
</svg>
