<?xml version="1.0" encoding="utf-8"?>
<!-- Generator: Adobe Illustrator 16.0.0, SVG Export Plug-In . SVG Version: 6.00 Build 0)  -->
<!DOCTYPE svg PUBLIC "-//W3C//DTD SVG 1.1//EN" "http://www.w3.org/Graphics/SVG/1.1/DTD/svg11.dtd">
<svg version="1.1" id="Layer_1" xmlns="http://www.w3.org/2000/svg" xmlns:xlink="http://www.w3.org/1999/xlink" x="0px" y="0px"
	 width="1474.427px" height="334.082px" viewBox="0 0 1474.427 334.082" enable-background="new 0 0 1474.427 334.082"
	 xml:space="preserve">
<g>
	<defs>
		<rect id="SVGID_1_" x="-261.127" y="-833" width="2000" height="2000"/>
	</defs>
	<clipPath id="SVGID_2_">
		<use xlink:href="#SVGID_1_"  overflow="visible"/>
	</clipPath>
	<path clip-path="url(#SVGID_2_)" fill="#3BCBF8" d="M174.143,20.724H60.748c-21.287,0-38.604,17.317-38.604,38.604v231.858
		c0,21.287,17.317,38.604,38.604,38.604h113.395c21.287,0,38.604-17.316,38.604-38.604V59.328
		C212.747,38.041,195.43,20.724,174.143,20.724"/>
	<path clip-path="url(#SVGID_2_)" fill="#1A1A1A" d="M157.63,4.211H44.234c-21.286,0-38.603,17.317-38.603,38.604v231.858
		c0,21.286,17.317,38.604,38.603,38.604H157.63c21.287,0,38.604-17.317,38.604-38.604V42.815
		C196.234,21.528,178.917,4.211,157.63,4.211"/>
	<path clip-path="url(#SVGID_2_)" fill="#FFFFFF" d="M81.79,275.799c-7.046,2.279-15.148,4.815-23.189,7.536
		c-4.012,1.358-7.819,1.271-11.466-0.86c-5.679-3.318-5.661-9.817,0.012-13.131c3.246-1.895,6.71-2.332,10.326-1.197
		C65.972,270.815,74.468,273.494,81.79,275.799"/>
	<path clip-path="url(#SVGID_2_)" fill="#FFFFFF" d="M112.339,253.432c-5.707,0.048-10.45-4.564-10.569-10.278
		c-0.12-5.737,4.781-10.694,10.531-10.652c5.639,0.042,10.43,4.847,10.436,10.464C122.744,248.633,118.024,253.385,112.339,253.432"
		/>
	<path clip-path="url(#SVGID_2_)" fill="#FFFFFF" d="M38.731,243.085c-0.061,5.762-4.763,10.403-10.491,10.354
		c-5.709-0.051-10.361-4.824-10.286-10.559c0.074-5.748,4.829-10.454,10.489-10.381C34.154,232.572,38.792,237.344,38.731,243.085"
		/>
	<path clip-path="url(#SVGID_2_)" fill="#FFFFFF" d="M135.838,235.369c4.156,0.054,7.5,3.5,7.456,7.684
		c-0.044,4.142-3.423,7.512-7.599,7.512c-1.987-0.017-3.86-0.823-5.274-2.268c-1.426-1.457-2.197-3.369-2.171-5.384
		c0.054-4.158,3.417-7.544,7.497-7.544 M135.747,232.608L135.747,232.608c-5.583,0-10.184,4.607-10.258,10.271
		c-0.035,2.753,1.015,5.362,2.959,7.349c1.932,1.974,4.497,3.074,7.224,3.098h0.089c5.616,0,10.234-4.595,10.294-10.244
		c0.06-5.701-4.507-10.399-10.182-10.473H135.747z"/>
	<path clip-path="url(#SVGID_2_)" fill="#FFFFFF" d="M159.114,235.369c4.156,0.054,7.5,3.5,7.456,7.684
		c-0.044,4.142-3.423,7.512-7.599,7.512c-1.986-0.017-3.859-0.823-5.274-2.268c-1.426-1.457-2.197-3.369-2.171-5.384
		c0.054-4.158,3.417-7.544,7.497-7.544 M159.023,232.608L159.023,232.608c-5.583,0-10.184,4.607-10.257,10.271
		c-0.036,2.753,1.014,5.362,2.958,7.349c1.932,1.974,4.497,3.074,7.224,3.098h0.089c5.616,0,10.235-4.595,10.294-10.244
		c0.06-5.701-4.507-10.399-10.182-10.473H159.023z"/>
	<path clip-path="url(#SVGID_2_)" fill="#FFFFFF" d="M52.258,253.439c-5.701,0.055-10.462-4.612-10.542-10.334
		c-0.079-5.657,4.649-10.521,10.305-10.604c5.642-0.082,10.457,4.66,10.521,10.363C62.607,248.592,57.946,253.385,52.258,253.439"/>
	<path clip-path="url(#SVGID_2_)" fill="#FFFFFF" d="M75.598,253.436c-5.686,0.047-10.464-4.67-10.514-10.378
		c-0.049-5.645,4.742-10.519,10.378-10.559c5.646-0.04,10.46,4.738,10.499,10.421C86.001,248.644,81.325,253.389,75.598,253.436"/>
	<path clip-path="url(#SVGID_2_)" fill="#FFFFFF" d="M184.282,248.631c0,1.981,0.02,3.965-0.004,5.946
		c-0.05,4.139-3.285,8.702-7.128,10.097c-4.539,1.645-8.511-0.853-9.273-5.832c-0.873-5.707,3.019-12.12,8.589-13.716
		c1.698-0.486,2.268-1.169,2.135-2.838c-0.168-2.114,0.683-3.477,3.046-3.372c2.255,0.102,2.709,1.547,2.65,3.47
		C184.233,244.466,184.282,246.549,184.282,248.631"/>
	<path clip-path="url(#SVGID_2_)" fill="#FFFFFF" d="M28.408,268.198c4.156,0.052,7.5,3.499,7.456,7.682
		c-0.044,4.143-3.423,7.513-7.599,7.512c-1.987-0.017-3.86-0.821-5.274-2.268c-1.426-1.457-2.197-3.369-2.171-5.383
		c0.054-4.159,3.417-7.544,7.497-7.544 M28.317,265.436L28.317,265.436c-5.583,0-10.184,4.607-10.258,10.271
		c-0.035,2.753,1.015,5.363,2.959,7.349c1.932,1.975,4.497,3.074,7.223,3.099h0.09c5.616,0,10.234-4.596,10.294-10.244
		c0.06-5.702-4.507-10.4-10.182-10.472L28.317,265.436z"/>
	<path clip-path="url(#SVGID_2_)" fill="#FFFFFF" d="M49.384,196.478c-3.301-3.299-4.947-7.632-4.947-12.999V54.607
		c0-5.368,1.455-9.507,4.374-12.423c2.91-2.915,7.052-4.374,12.425-4.374h79.163c5.829,0,10.123,1.152,12.886,3.452
		c2.761,2.298,4.142,5.907,4.142,10.817c0,4.755-1.381,8.283-4.142,10.582c-2.763,2.304-7.057,3.451-12.886,3.451H79.875v37.283
		h55.92c5.829,0,10.127,1.147,12.887,3.452c2.763,2.299,4.142,5.908,4.142,10.817c0,4.756-1.379,8.283-4.142,10.583
		c-2.76,2.303-7.058,3.45-12.887,3.45h-55.92v51.781c0,5.521-1.575,9.895-4.718,13.116c-3.145,3.222-7.401,4.832-12.772,4.832
		C57.015,201.427,52.682,199.78,49.384,196.478"/>
	<path clip-path="url(#SVGID_2_)" fill="#1A1A1A" d="M230.216,191.489c-2.308-2.302-3.459-5.58-3.459-9.825V79.744
		c0-4.245,1.274-7.644,3.822-10.192c2.548-2.547,6.007-3.822,10.373-3.822c4.368,0,7.827,1.275,10.375,3.822
		c2.548,2.548,3.822,5.947,3.822,10.192v92.091h46.589c8.856,0,13.286,3.884,13.286,11.647c0,7.644-4.43,11.466-13.286,11.466
		h-61.695C235.793,194.948,232.518,193.795,230.216,191.489"/>
	<path clip-path="url(#SVGID_2_)" fill="#1A1A1A" d="M344.414,182.664c-9.403-9.285-14.104-22.842-14.104-40.678V79.744
		c0-4.245,1.274-7.643,3.822-10.191c2.548-2.548,5.942-3.823,10.192-3.823c4.245,0,7.613,1.274,10.1,3.823
		c2.486,2.548,3.732,5.946,3.732,10.191v63.516c0,10.192,2.334,17.961,7.006,23.298c4.669,5.338,11.434,8.007,20.293,8.007
		c8.855,0,15.652-2.697,20.383-8.099c4.733-5.399,7.097-13.131,7.097-23.206V79.744c0-4.245,1.244-7.643,3.731-10.191
		c2.486-2.548,5.852-3.823,10.102-3.823c4.245,0,7.643,1.274,10.191,3.823c2.548,2.548,3.822,5.946,3.822,10.191v62.242
		c0,17.719-4.73,31.244-14.195,40.585c-9.464,9.345-23.177,14.014-41.131,14.014C367.497,196.585,353.814,191.945,344.414,182.664"
		/>
	<path clip-path="url(#SVGID_2_)" fill="#1A1A1A" d="M506.391,192.037c-2.61-2.548-3.913-5.946-3.913-10.191V89.755h-29.484
		c-8.98,0-13.467-3.883-13.467-11.647c0-7.644,4.487-11.466,13.467-11.466h87.358c8.978,0,13.47,3.822,13.47,11.466
		c0,7.764-4.492,11.647-13.47,11.647H530.87v92.091c0,4.245-1.274,7.644-3.822,10.191c-2.548,2.549-6.007,3.822-10.375,3.822
		C512.426,195.859,508.999,194.586,506.391,192.037"/>
	<path clip-path="url(#SVGID_2_)" fill="#1A1A1A" d="M596.753,191.489c-2.306-2.302-3.459-5.58-3.459-9.825V79.926
		c0-4.246,1.153-7.52,3.459-9.825c2.302-2.306,5.58-3.46,9.829-3.46h64.423c8.978,0,13.469,3.641,13.469,10.918
		c0,7.406-4.491,11.102-13.469,11.102h-50.047v30.031h46.407c8.978,0,13.469,3.701,13.469,11.103
		c0,7.277-4.491,10.917-13.469,10.917h-46.407v32.216h50.047c8.978,0,13.469,3.7,13.469,11.099c0,7.28-4.491,10.921-13.469,10.921
		h-64.423C602.333,194.948,599.055,193.795,596.753,191.489"/>
	<path clip-path="url(#SVGID_2_)" fill="#1A1A1A" d="M1070.095,183.482c0,3.398-1.363,6.277-4.093,8.644
		c-2.729,2.366-5.856,3.552-9.373,3.552c-2.306,0-4.49-0.637-6.551-1.91c-2.063-1.274-3.64-3.186-4.732-5.733l-9.648-21.476h-61.693
		l-9.647,21.476c-1.092,2.548-2.636,4.459-4.64,5.733c-2.004,1.273-4.218,1.91-6.645,1.91c-3.519,0-6.672-1.186-9.462-3.552
		c-2.794-2.366-4.188-5.245-4.188-8.644c0-1.697,0.483-3.64,1.459-5.825l49.137-103.19c1.334-2.91,3.338-5.124,6.006-6.643
		c2.669-1.516,5.52-2.274,8.555-2.274c3.153,0,6.064,0.79,8.736,2.366c2.666,1.577,4.729,3.762,6.189,6.551l49.136,103.19
		C1069.61,179.843,1070.095,181.785,1070.095,183.482 M983.647,145.083h42.407l-21.113-47.322L983.647,145.083z"/>
	<path clip-path="url(#SVGID_2_)" fill="#1A1A1A" d="M1200.948,184.757c0,3.398-1.362,6.188-4.095,8.373
		c-2.73,2.181-5.915,3.273-9.555,3.273c-2.307,0-4.549-0.544-6.733-1.637c-2.185-1.092-4.003-2.79-5.459-5.096L1151.083,154
		c-2.063-3.156-4.249-5.43-6.551-6.825c-2.306-1.395-5.221-2.092-8.737-2.092h-14.742v36.763c0,4.366-1.245,7.825-3.729,10.373
		c-2.487,2.548-5.857,3.822-10.103,3.822c-4.366,0-7.825-1.274-10.373-3.822s-3.822-6.007-3.822-10.373V79.926
		c0-4.245,1.153-7.519,3.459-9.825c2.302-2.306,5.58-3.459,9.829-3.459h45.681c15.042,0,26.414,3.306,34.123,9.917
		c7.704,6.616,11.559,16.171,11.559,28.665c0,9.828-2.734,18.016-8.192,24.571c-5.459,6.552-13.167,10.856-23.113,12.922
		c3.642,0.725,6.887,2.153,9.736,4.277c2.851,2.125,5.612,5.185,8.281,9.188l13.832,20.75
		C1200.037,179.601,1200.948,182.209,1200.948,184.757 M1165.459,119.33c3.642-2.851,5.459-7.309,5.459-13.376
		c0-6.189-1.817-10.676-5.459-13.47c-3.64-2.79-9.525-4.185-17.653-4.185h-27.116v35.308h27.116
		C1155.934,123.606,1161.819,122.18,1165.459,119.33"/>
	<path clip-path="url(#SVGID_2_)" fill="#1A1A1A" d="M1231.342,191.489c-2.306-2.302-3.459-5.579-3.459-9.825V79.926
		c0-4.246,1.153-7.519,3.459-9.825c2.303-2.306,5.58-3.46,9.829-3.46h36.578c13.952,0,25.962,2.549,36.037,7.644
		c10.067,5.096,17.771,12.438,23.113,22.021c5.337,9.586,8.006,21.052,8.006,34.396c0,13.348-2.636,24.842-7.914,34.49
		c-5.281,9.646-12.953,17.016-23.022,22.112c-10.071,5.096-22.146,7.644-36.22,7.644h-36.578
		C1236.922,194.948,1233.645,193.795,1231.342,191.489 M1316.697,130.702c0-27.418-13.651-41.129-40.948-41.129h-19.476v82.444
		h19.476C1303.046,172.018,1316.697,158.249,1316.697,130.702"/>
	<path clip-path="url(#SVGID_2_)" fill="#1A1A1A" d="M1393.493,193.219c-8.252-2.242-14.985-5.427-20.202-9.555
		c-1.818-1.334-3.124-2.758-3.911-4.277c-0.79-1.516-1.185-3.427-1.185-5.732c0-3.032,0.939-5.701,2.822-8.006
		c1.879-2.303,4.031-3.46,6.463-3.46c1.334,0,2.637,0.214,3.91,0.637c1.273,0.428,2.821,1.186,4.645,2.274
		c5.212,3.278,10.489,5.677,15.831,7.192c5.338,1.516,11.22,2.273,17.654,2.273c8.007,0,14.135-1.334,18.38-4.003
		c4.249-2.669,6.369-6.491,6.369-11.466c0-3.761-1.972-6.793-5.914-9.099c-3.943-2.306-10.949-4.491-21.021-6.555
		c-11.284-2.302-20.29-5.096-27.026-8.369c-6.732-3.278-11.647-7.342-14.739-12.196c-3.098-4.849-4.641-10.736-4.641-17.654
		c0-7.643,2.209-14.525,6.64-20.657c4.431-6.124,10.559-10.917,18.384-14.376s16.649-5.185,26.479-5.185
		c17.227,0,31.425,4.306,42.588,12.921c1.818,1.456,3.121,2.943,3.91,4.459c0.79,1.516,1.187,3.366,1.187,5.551
		c0,3.032-0.944,5.705-2.823,8.007c-1.883,2.306-4.035,3.459-6.462,3.459c-1.335,0-2.576-0.182-3.729-0.548
		c-1.152-0.363-2.762-1.149-4.821-2.367c-4.979-3.152-9.556-5.519-13.744-7.095c-4.185-1.576-9.494-2.367-15.924-2.367
		c-7.402,0-13.224,1.427-17.468,4.277c-4.249,2.851-6.37,6.766-6.37,11.74c0,2.911,0.818,5.306,2.455,7.189
		c1.637,1.882,4.366,3.547,8.188,5.003c3.822,1.455,9.252,2.975,16.291,4.551c16.497,3.641,28.358,8.312,35.578,14.014
		c7.221,5.704,10.829,13.529,10.829,23.475c0,7.769-2.153,14.622-6.458,20.569c-4.311,5.942-10.373,10.554-18.203,13.828
		c-7.825,3.277-16.896,4.914-27.208,4.914C1410.663,196.585,1401.745,195.465,1393.493,193.219"/>
	<path clip-path="url(#SVGID_2_)" fill="#FA5486" d="M891.624,20.724H778.228c-21.285,0-38.603,17.317-38.603,38.604v231.858
		c0,21.287,17.317,38.604,38.603,38.604h113.396c21.286,0,38.604-17.316,38.604-38.604V59.328
		C930.228,38.041,912.91,20.724,891.624,20.724"/>
	<path clip-path="url(#SVGID_2_)" fill="#1A1A1A" d="M875.111,4.211H761.716c-21.287,0-38.604,17.317-38.604,38.604v231.858
		c0,21.286,17.317,38.604,38.604,38.604h113.396c21.286,0,38.604-17.317,38.604-38.604V42.815
		C913.715,21.528,896.397,4.211,875.111,4.211"/>
	<path clip-path="url(#SVGID_2_)" fill="#FFFFFF" d="M787.409,191.695c-11.808-6.661-20.896-16.2-27.254-28.617
		c-6.359-12.412-9.538-26.951-9.538-43.61c0-16.652,3.179-31.147,9.538-43.494c6.358-12.336,15.446-21.835,27.254-28.501
		c11.813-6.661,25.588-9.991,41.34-9.991c19.833,0,36.939,5.448,51.328,16.351c2.269,1.816,3.859,3.632,4.771,5.448
		c0.909,1.816,1.362,4.091,1.362,6.817c0,3.94-1.102,7.305-3.296,10.108c-2.193,2.802-4.88,4.201-8.06,4.201
		c-2.123,0-3.975-0.267-5.564-0.795c-1.589-0.528-3.371-1.479-5.338-2.843c-6.057-3.934-11.662-6.771-16.81-8.517
		c-5.146-1.736-10.676-2.611-16.576-2.611c-14.535,0-25.479,4.508-32.824,13.513c-7.345,9.011-11.012,22.454-11.012,40.314
		c0,36.039,14.609,54.055,43.836,54.055c5.599,0,10.901-0.865,15.897-2.611c4.996-1.735,10.822-4.578,17.488-8.517
		c2.269-1.359,4.161-2.304,5.675-2.838c1.514-0.528,3.255-0.795,5.228-0.795c3.18,0,5.866,1.404,8.06,4.202
		c2.194,2.807,3.296,6.172,3.296,10.107c0,2.727-0.493,5.035-1.479,6.928c-0.987,1.896-2.536,3.673-4.654,5.338
		c-14.389,10.902-31.495,16.351-51.328,16.351C812.997,201.687,799.223,198.362,787.409,191.695"/>
	<path clip-path="url(#SVGID_2_)" fill="#FFFFFF" d="M768.541,270.354L768.541,270.354c1.005,0,2.047,0.167,3.096,0.496
		l16.127,5.074c-4.855,1.556-9.965,3.204-15.05,4.924c-1.493,0.506-2.913,0.762-4.221,0.762c-1.775,0-3.417-0.456-5.022-1.394
		c-1.844-1.077-2.9-2.608-2.9-4.2c0-1.597,1.062-3.132,2.912-4.213C765.129,270.841,766.831,270.354,768.541,270.354
		 M768.541,267.576c-2.23,0-4.389,0.618-6.459,1.827c-5.708,3.334-5.727,9.871-0.013,13.21c2.086,1.22,4.225,1.774,6.424,1.774
		c1.668,0,3.37-0.319,5.11-0.909c8.09-2.735,16.24-5.288,23.328-7.581c-7.365-2.317-15.913-5.013-24.463-7.698
		C771.138,267.781,769.828,267.576,768.541,267.576"/>
	<path clip-path="url(#SVGID_2_)" fill="#FFFFFF" d="M755.838,242.987c-0.062,5.796-4.793,10.465-10.555,10.416
		c-5.744-0.05-10.424-4.852-10.348-10.621c0.075-5.783,4.857-10.517,10.551-10.444C751.233,232.411,755.898,237.211,755.838,242.987
		"/>
	<path clip-path="url(#SVGID_2_)" fill="#FFFFFF" d="M902.264,248.566c0,1.993,0.02,3.988-0.005,5.982
		c-0.051,4.163-3.304,8.755-7.171,10.156c-4.565,1.656-8.562-0.857-9.328-5.866c-0.879-5.742,3.037-12.193,8.641-13.798
		c1.708-0.49,2.281-1.176,2.147-2.855c-0.169-2.127,0.688-3.498,3.065-3.392c2.268,0.101,2.724,1.556,2.665,3.49
		C902.213,244.376,902.264,246.472,902.264,248.566"/>
	<path clip-path="url(#SVGID_2_)" fill="#FFFFFF" d="M769.25,235.117c4.182,0.054,7.546,3.52,7.501,7.729
		c-0.044,4.167-3.444,7.558-7.644,7.558c-1.999-0.018-3.883-0.827-5.307-2.281c-1.435-1.467-2.21-3.389-2.184-5.416
		c0.054-4.185,3.438-7.589,7.542-7.589 M769.159,232.339L769.159,232.339c-5.617,0-10.246,4.635-10.319,10.331
		c-0.036,2.771,1.021,5.397,2.977,7.395c1.942,1.985,4.523,3.093,7.267,3.115l0.09,0.001c5.65,0,10.296-4.623,10.356-10.306
		c0.06-5.736-4.535-10.462-10.243-10.535L769.159,232.339z"/>
	<path clip-path="url(#SVGID_2_)" fill="#FFFFFF" d="M792.916,235.227c4.182,0.054,7.546,3.52,7.501,7.728
		c-0.044,4.168-3.444,7.558-7.644,7.558c-1.999-0.017-3.883-0.827-5.307-2.281c-1.435-1.466-2.21-3.39-2.184-5.415
		c0.054-4.185,3.438-7.589,7.542-7.59 M792.825,232.448L792.825,232.448c-5.617,0-10.246,4.635-10.319,10.331
		c-0.036,2.771,1.021,5.396,2.977,7.394c1.942,1.986,4.523,3.094,7.267,3.116l0.09,0.001c5.65,0,10.296-4.623,10.356-10.306
		c0.06-5.736-4.535-10.462-10.243-10.535L792.825,232.448z"/>
	<path clip-path="url(#SVGID_2_)" fill="#FFFFFF" d="M829.866,235.226c4.181,0.055,7.546,3.521,7.501,7.729
		c-0.044,4.168-3.443,7.558-7.644,7.558c-1.999-0.018-3.884-0.828-5.307-2.282c-1.434-1.466-2.21-3.389-2.184-5.415
		c0.055-4.184,3.438-7.589,7.542-7.59 M829.775,232.448L829.775,232.448c-5.617,0-10.245,4.635-10.319,10.331
		c-0.036,2.77,1.021,5.396,2.977,7.394c1.943,1.986,4.523,3.093,7.267,3.116l0.09,0.001c5.65,0,10.296-4.623,10.356-10.307
		c0.061-5.735-4.535-10.463-10.243-10.535H829.775z"/>
	<path clip-path="url(#SVGID_2_)" fill="#FFFFFF" d="M853.527,235.226c4.182,0.055,7.546,3.521,7.501,7.729
		c-0.044,4.168-3.444,7.558-7.644,7.558c-1.999-0.018-3.883-0.828-5.307-2.282c-1.435-1.466-2.21-3.389-2.184-5.415
		c0.054-4.184,3.438-7.589,7.542-7.59 M853.437,232.448L853.437,232.448c-5.617,0-10.246,4.635-10.319,10.331
		c-0.036,2.77,1.021,5.396,2.977,7.394c1.942,1.986,4.523,3.093,7.267,3.116l0.09,0.001c5.65,0,10.296-4.624,10.356-10.307
		c0.06-5.735-4.535-10.463-10.243-10.535H853.437z"/>
	<path clip-path="url(#SVGID_2_)" fill="#FFFFFF" d="M876.944,235.226c4.181,0.055,7.545,3.521,7.501,7.729
		c-0.045,4.168-3.443,7.558-7.645,7.558c-1.999-0.018-3.883-0.828-5.307-2.282c-1.434-1.466-2.21-3.389-2.184-5.415
		c0.055-4.184,3.438-7.589,7.542-7.59 M876.853,232.448L876.853,232.448c-5.617,0-10.245,4.635-10.319,10.331
		c-0.036,2.77,1.021,5.396,2.977,7.394c1.943,1.986,4.523,3.093,7.267,3.116l0.09,0.001c5.65,0,10.296-4.623,10.356-10.307
		c0.061-5.735-4.534-10.463-10.243-10.535H876.853z"/>
	<path clip-path="url(#SVGID_2_)" fill="#FFFFFF" d="M745.452,268.251c4.181,0.054,7.546,3.521,7.501,7.729
		c-0.044,4.167-3.444,7.558-7.645,7.558c-1.999-0.018-3.883-0.827-5.306-2.281c-1.434-1.467-2.21-3.389-2.184-5.415
		c0.055-4.185,3.438-7.59,7.542-7.59 M745.361,265.473h-0.002c-5.615,0-10.244,4.635-10.317,10.332
		c-0.036,2.771,1.021,5.396,2.976,7.393c1.944,1.986,4.524,3.094,7.268,3.117h0.09c5.649,0,10.296-4.623,10.355-10.306
		c0.062-5.736-4.535-10.462-10.242-10.535L745.361,265.473z"/>
</g>
</svg>
