<?xml version="1.0" encoding="utf-8"?>
<!-- Generator: Adobe Illustrator 16.0.0, SVG Export Plug-In . SVG Version: 6.00 Build 0)  -->
<!DOCTYPE svg PUBLIC "-//W3C//DTD SVG 1.1//EN" "http://www.w3.org/Graphics/SVG/1.1/DTD/svg11.dtd">
<svg version="1.1" id="Layer_1" xmlns="http://www.w3.org/2000/svg" xmlns:xlink="http://www.w3.org/1999/xlink" x="0px" y="0px"
	 width="38.84px" height="105.743px" viewBox="98.317 224.389 38.84 105.743" enable-background="new 98.317 224.389 38.84 105.743"
	 xml:space="preserve">
<path d="M132.353,259.8c1.978-0.705,3.672-1.553,3.955-1.694c0.141-0.142,0.424-0.423,0.564-0.706
	c0.281-0.424,0.281-0.848,0.281-5.648c0-5.649,0-5.791-0.987-6.498c-0.849-0.707-1.271-0.564-4.521,0.707
	c-1.554,0.564-2.824,1.129-2.824,1.129c-0.141,0-0.141-4.66-0.141-10.45c0-9.886,0-10.31-0.283-10.875
	c-0.564-1.271-2.119-1.694-3.106-1.13c-0.706,0.283-0.987,0.564-1.271,1.13s-0.283,1.271-0.283,12.005v11.439l-5.932,2.4l-5.932,2.4
	l-0.141-10.875c0-9.885-0.142-11.016-0.282-11.439c-0.989-1.695-3.39-1.695-4.378,0c-0.141,0.424-0.282,1.695-0.282,12.43v11.862
	l-3.672,1.554c-1.978,0.707-3.673,1.553-3.954,1.694c-0.143,0.142-0.424,0.425-0.564,0.706c-0.283,0.424-0.283,0.848-0.283,5.648
	c0,5.65,0,5.791,0.988,6.498c0.848,0.705,1.271,0.564,4.521-0.707c1.553-0.564,2.823-1.129,2.823-1.129
	c0.143,0,0.143,5.226,0.143,11.439v11.439l-3.672,1.554c-1.977,0.706-3.672,1.553-3.954,1.694c-0.142,0.142-0.424,0.424-0.565,0.707
	c-0.283,0.422-0.283,0.847-0.283,5.648c0,5.648,0,5.791,0.99,6.497c0.846,0.706,1.271,0.563,4.52-0.707
	c1.553-0.565,2.824-1.13,2.824-1.13c0.142,0,0.142,4.661,0.142,10.451c0,11.016,0,10.732,0.706,11.439
	c0.281,0.424,1.271,0.848,1.836,0.848c0.424,0,1.412-0.424,1.695-0.848c0.705-0.707,0.705-0.424,0.705-12.57v-11.438l5.933-2.401
	l6.073-2.4v10.875c0,9.886,0.141,11.016,0.281,11.439c0.99,1.695,3.391,1.695,4.379,0c0.141-0.424,0.281-1.695,0.281-12.428
	l0.142-11.863l3.53-1.554c1.979-0.707,3.672-1.554,3.955-1.694c0.142-0.142,0.424-0.425,0.565-0.707
	c0.282-0.424,0.282-0.848,0.282-5.648c0-5.648,0-5.791-0.988-6.497c-0.848-0.706-1.271-0.565-4.52,0.706
	c-1.555,0.564-2.825,1.13-2.825,1.13c-0.142,0-0.142-5.226-0.142-11.438l0.142-11.44L132.353,259.8z M123.737,274.771v11.581
	l-5.508,2.26c-3.107,1.13-5.791,2.261-6.074,2.401l-0.424,0.142v-11.44v-11.58l5.933-2.401l6.073-2.401V274.771z"/>
</svg>
