<?xml version="1.0" encoding="utf-8"?>
<!-- Generator: Adobe Illustrator 16.0.0, SVG Export Plug-In . SVG Version: 6.00 Build 0)  -->
<!DOCTYPE svg PUBLIC "-//W3C//DTD SVG 1.1//EN" "http://www.w3.org/Graphics/SVG/1.1/DTD/svg11.dtd">
<svg version="1.1" id="Layer_1" xmlns="http://www.w3.org/2000/svg" xmlns:xlink="http://www.w3.org/1999/xlink" x="0px" y="0px"
	 width="58.298px" height="174.593px" viewBox="61.292 151.103 58.298 174.593"
	 enable-background="new 61.292 151.103 58.298 174.593" xml:space="preserve">
<path d="M90.852,151.275c0.275-0.274,0.734-0.184,1.103,0c0.366,0.275,1.744,1.836,2.938,3.396
	c5.416,7.161,9.822,17.901,10.924,26.714c0.643,4.774,0.092,10.007-1.377,14.872c-2.112,7.069-5.875,13.678-12.944,22.768
	c-0.918,1.192-1.744,2.203-1.836,2.295c-0.093,0.184,0,0.459,0.551,2.387c1.651,5.141,4.224,13.586,5.142,16.799l0.274,1.285h1.192
	c4.498,0.275,8.447,1.561,12.119,3.948c5.6,3.764,9.363,9.823,10.373,16.891c0.275,1.377,0.367,3.947,0.185,5.324
	c-0.274,3.122-1.011,5.6-2.295,8.354c-2.571,5.231-6.978,9.363-12.302,11.383l-1.01,0.367l0.092,3.854
	c0,5.323-0.184,11.108-0.643,14.137c-1.377,9.364-6.701,16.8-13.678,19.002c-1.745,0.552-2.754,0.644-4.866,0.644
	s-3.121-0.092-5.049-0.644c-3.488-0.825-6.519-2.569-8.997-5.049c-3.029-3.028-4.773-6.608-5.232-10.833
	c-0.274-2.479,0.185-4.682,1.377-6.518c1.928-3.029,5.601-4.774,9.18-4.683c4.591,0.275,8.078,4.04,8.354,8.997
	c0.185,4.499-2.846,8.262-7.252,9.088c-1.377,0.184-2.569,0.092-3.948-0.275l-0.643-0.274l0.275,0.367
	c1.192,1.651,2.387,2.846,4.039,3.854c4.131,2.662,9.363,3.121,13.312,1.103c4.406-2.203,7.711-6.978,9.088-13.312
	c0.459-2.02,0.734-4.59,0.918-9.271c0.093-2.571,0.093-8.997,0-9.181c-0.092,0-0.551,0-1.103,0.093
	c-2.02,0.366-3.028,0.366-5.6,0.366c-3.213,0-5.232-0.184-7.986-0.918c-12.301-3.028-21.756-13.311-23.868-25.887
	c-0.367-2.021-0.367-3.029-0.367-5.601s0-3.488,0.459-5.875c1.103-6.978,4.313-14.138,10.099-22.308l8.537-11.016
	c1.652-2.02,2.938-3.672,2.938-3.764s-0.275-1.01-0.552-2.111c-2.938-9.822-4.313-16.156-4.864-23.501
	c-0.367-4.223-0.459-9.456-0.185-12.118c1.01-8.17,4.224-15.514,9.547-21.664C88.373,153.48,90.301,151.552,90.852,151.275
	L90.852,151.275z M97.002,165.689c-0.459-0.918-0.918-1.652-0.918-1.652c-0.092,0-0.551,0.275-0.918,0.643
	c-7.344,5.325-11.842,12.853-13.036,21.758c-0.185,1.651-0.185,4.313-0.092,5.783c0.274,3.946,1.469,9.547,3.305,15.973
	c0.459,1.285,0.734,2.387,0.734,2.479s2.571-3.396,3.764-5.141c5.783-8.354,8.812-15.514,9.64-23.042
	c0.274-1.744,0.367-5.324,0.184-7.253C99.389,171.473,98.838,169.361,97.002,165.689z M88.005,229.031
	c-0.644-2.203-1.192-4.04-1.284-4.04c0,0-3.673,4.499-5.691,7.252c-8.538,11.108-12.301,19.278-13.312,28.458
	c-0.092,0.643-0.092,2.111-0.092,3.305c0,2.111,0,2.295,0.185,3.396c0.366,1.652,0.825,3.029,1.561,4.498
	c2.111,4.224,5.6,7.804,10.465,10.466c2.938,1.653,6.334,2.754,9.823,3.305c2.387,0.367,6.241,0.367,8.995-0.092
	c1.562-0.185,1.378-0.093,1.285-0.918c-0.733-10.19-2.203-19.37-4.957-30.845c-0.274-1.194-0.551-2.295-0.551-2.388
	c-0.092-0.092-1.285,0-2.479,0.275c-2.754,0.551-5.049,1.745-6.793,3.489c-2.203,2.203-3.305,5.049-3.213,8.078
	c0.184,2.938,1.469,5.6,3.764,7.895c1.102,1.102,2.203,1.928,3.581,2.754c1.01,0.551,1.103,0.643,1.285,1.01
	c0.551,1.285-0.552,2.754-1.836,2.662c-0.552-0.092-2.571-1.102-3.856-1.928c-2.387-1.561-4.223-3.396-5.691-5.6
	c-5.416-8.263-3.028-19.646,5.232-25.062c0.918-0.643,2.479-1.469,3.58-1.928c0.918-0.275,3.122-0.918,3.489-0.918
	c0.185,0,0.274,0,0.274-0.092C91.861,241.975,90.209,236.191,88.005,229.031L88.005,229.031z M99.572,251.706
	c-0.551-0.092-1.102-0.185-1.193-0.185c-0.091,0,0,0.644,0.551,3.123c2.295,9.729,3.855,19.277,4.59,27.814
	c0.185,2.204,0,2.111,1.562,1.286c2.387-1.103,4.405-2.938,6.06-5.417c3.305-4.957,3.672-11.292,0.918-16.983
	C109.579,256.389,104.988,252.807,99.572,251.706z"/>
</svg>
