<?xml version="1.0" encoding="utf-8"?>
<!-- Generator: Adobe Illustrator 16.0.0, SVG Export Plug-In . SVG Version: 6.00 Build 0)  -->
<!DOCTYPE svg PUBLIC "-//W3C//DTD SVG 1.1//EN" "http://www.w3.org/Graphics/SVG/1.1/DTD/svg11.dtd">
<svg version="1.1" id="Layer_1" xmlns="http://www.w3.org/2000/svg" xmlns:xlink="http://www.w3.org/1999/xlink" x="0px" y="0px"
	 width="70.546px" height="38.122px" viewBox="231.021 106.14 70.546 38.122" enable-background="new 231.021 106.14 70.546 38.122"
	 xml:space="preserve">
<path d="M261.563,106.198c2.401-0.142,9.463,0,11.863,0.142c6.639,0.848,12.43,2.401,17.514,5.084
	c5.648,2.967,9.18,6.639,10.31,10.875c0.424,1.555,0.424,4.237,0,5.791c-1.13,4.237-4.661,7.909-10.31,10.875
	c-5.084,2.684-10.733,4.237-17.654,5.084c-3.107,0.283-10.875,0.283-13.982,0c-6.92-0.847-12.568-2.4-17.654-5.084
	c-5.648-2.966-9.18-6.638-10.31-10.875c-0.424-1.554-0.424-4.236,0-5.791c1.13-4.236,4.661-7.908,10.31-10.875
	C247.3,108.458,253.938,106.764,261.563,106.198z M264.248,109.307c-4.097-0.707-7.203,0-9.604,2.4
	c-0.705,0.706-1.129,1.271-1.553,2.26c-1.13,2.401-1.695,5.084-1.554,8.333c0.142,3.248,0.848,5.933,1.978,8.333
	c2.824,5.508,8.19,9.321,14.971,10.451c5.226,0.989,9.18-0.706,11.016-4.661c1.13-2.401,1.695-5.084,1.553-8.474
	c-0.281-5.227-2.117-9.604-5.508-12.994C272.58,111.989,268.625,110.012,264.248,109.307z"/>
</svg>
